# Rhino

mtllib orientation_test.mtl
usemtl diffuse_0
v 1.3560969829559326 0 0
v -1.3560969829559326 0 0
v 1.3560969829559326 17.79681396484375 0
v -1.3560969829559326 17.79681396484375 0
v 1.3560969829559326 4.4492034912109375 0
v 1.3560969829559326 8.898406982421875 0
v 1.3560969829559326 13.347610473632813 0
v 0 17.79681396484375 0
v -1.3560969829559326 13.347610473632813 0
v -1.3560969829559326 8.898406982421875 0
v -1.3560969829559326 4.4492034912109375 0
v 0 0 0
v 1.3560969829559326 17.79681396484375 0
v 1.3560969829559326 17.79681396484375 -1.2567262649536133
v 1.3560969829559326 0 0
v 1.3560969829559326 0 -1.2567262649536133
v 1.3560969829559326 13.347610473632813 0
v 1.3560969829559326 8.898406982421875 0
v 1.3560969829559326 4.4492034912109375 0
v 1.3560969829559326 4.4492034912109375 -1.2567262649536133
v 1.3560969829559326 8.898406982421875 -1.2567262649536133
v 1.3560969829559326 13.347610473632813 -1.2567262649536133
v -1.3560969829559326 17.79681396484375 0
v -1.3560969829559326 17.79681396484375 -1.2567262649536133
v 1.3560969829559326 17.79681396484375 0
v 1.3560969829559326 17.79681396484375 -1.2567262649536133
v 0 17.79681396484375 0
v 0 17.79681396484375 -1.2567262649536133
v -1.3560969829559326 0 0
v -1.3560969829559326 0 -1.2567262649536133
v -1.3560969829559326 17.79681396484375 0
v -1.3560969829559326 17.79681396484375 -1.2567262649536133
v -1.3560969829559326 4.4492034912109375 0
v -1.3560969829559326 8.898406982421875 0
v -1.3560969829559326 13.347610473632813 0
v -1.3560969829559326 13.347610473632813 -1.2567262649536133
v -1.3560969829559326 8.898406982421875 -1.2567262649536133
v -1.3560969829559326 4.4492034912109375 -1.2567262649536133
v 1.3560969829559326 0 0
v 1.3560969829559326 0 -1.2567262649536133
v -1.3560969829559326 0 0
v -1.3560969829559326 0 -1.2567262649536133
v 0 0 0
v 0 0 -1.2567262649536133
v 1.3560969829559326 0 -1.2567262649536133
v -1.3560969829559326 0 -1.2567262649536133
v 1.3560969829559326 17.79681396484375 -1.2567262649536133
v -1.3560969829559326 17.79681396484375 -1.2567262649536133
v 1.3560969829559326 4.4492034912109375 -1.2567262649536133
v 1.3560969829559326 8.898406982421875 -1.2567262649536133
v 1.3560969829559326 13.347610473632813 -1.2567262649536133
v 0 17.79681396484375 -1.2567262649536133
v -1.3560969829559326 13.347610473632813 -1.2567262649536133
v -1.3560969829559326 8.898406982421875 -1.2567262649536133
v -1.3560969829559326 4.4492034912109375 -1.2567262649536133
v 0 0 -1.2567262649536133
vt 0.12375281006097794 0.57685184478759766
vt 0.12375281006097794 0.71038997173309326
vt 0.99853515625 0.57685184478759766
vt 0.99853515625 0.71038997173309326
vt 0.34244838356971741 0.57685184478759766
vt 0.56114399433135986 0.57685184478759766
vt 0.77983957529067993 0.57685184478759766
vt 0.99853515625 0.64362090826034546
vt 0.77983957529067993 0.71038997173309326
vt 0.56114399433135986 0.71038997173309326
vt 0.34244838356971741 0.71038997173309326
vt 0.12375281006097794 0.64362090826034546
vt 0.12228796631097794 0
vt 0.061876405030488968 0
vt 0.12228796631097794 0.87478232383728027
vt 0.061876405030488968 0.87478232383728027
vt 0.12228796631097794 0.21869558095932007
vt 0.12228796631097794 0.43739116191864014
vt 0.12228796631097794 0.65608674287796021
vt 0.061876405030488968 0.65608674287796021
vt 0.061876405030488968 0.43739116191864014
vt 0.061876405030488968 0.21869558095932007
vt 0.12375281006097794 0.13872826099395752
vt 0.12375281006097794 0.20060466229915619
vt 0.25729089975357056 0.13872826099395752
vt 0.25729089975357056 0.20060466229915619
vt 0.19052185118198395 0.13872826099395752
vt 0.19052185118198395 0.20060466229915619
vt 0.060411561280488968 0
vt 0 0
vt 0.060411561280488968 0.87478232383728027
vt 0 0.87478232383728027
vt 0.060411561280488968 0.21869558095932007
vt 0.060411561280488968 0.43739116191864014
vt 0.060411561280488968 0.65608674287796021
vt 0 0.65608674287796021
vt 0 0.43739116191864014
vt 0 0.21869558095932007
vt 0.12375281006097794 0
vt 0.12375281006097794 0.061876405030488968
vt 0.25729089975357056 0
vt 0.25729089975357056 0.061876405030488968
vt 0.19052185118198395 0
vt 0.19052185118198395 0.061876405030488968
vt 0.12375281006097794 0.27745652198791504
vt 0.12375281006097794 0.41099461913108826
vt 0.99853515625 0.27745652198791504
vt 0.99853515625 0.41099461913108826
vt 0.34244838356971741 0.27745652198791504
vt 0.56114399433135986 0.27745652198791504
vt 0.77983957529067993 0.27745652198791504
vt 0.99853515625 0.34422555565834045
vt 0.77983957529067993 0.41099461913108826
vt 0.56114399433135986 0.41099461913108826
vt 0.34244838356971741 0.41099461913108826
vt 0.12375281006097794 0.34422555565834045
vn 0 0 1
vn 0 0 1
vn 0 0 1
vn 0 0 1
vn 0 0 1
vn 0 0 1
vn 0 0 1
vn 0 0 1
vn 0 0 1
vn 0 0 1
vn 0 0 1
vn 0 0 1
vn 1 0 0
vn 1 0 0
vn 1 0 0
vn 1 0 0
vn 1 0 0
vn 1 0 0
vn 1 0 0
vn 1 0 0
vn 1 0 0
vn 1 0 0
vn 0 1 0
vn 0 1 0
vn 0 1 0
vn 0 1 0
vn 0 1 0
vn 0 1 0
vn -1 0 0
vn -1 0 0
vn -1 0 0
vn -1 0 0
vn -1 0 0
vn -1 0 0
vn -1 0 0
vn -1 0 0
vn -1 0 0
vn -1 0 0
vn 0 -1 0
vn 0 -1 0
vn 0 -1 0
vn 0 -1 0
vn 0 -1 0
vn 0 -1 0
vn 0 0 -1
vn 0 0 -1
vn 0 0 -1
vn 0 0 -1
vn 0 0 -1
vn 0 0 -1
vn 0 0 -1
vn 0 0 -1
vn 0 0 -1
vn 0 0 -1
vn 0 0 -1
vn 0 0 -1
f 12/12/12 1/1/1 5/5/5
f 5/5/5 11/11/11 2/2/2 12/12/12
f 10/10/10 11/11/11 5/5/5 6/6/6
f 6/6/6 7/7/7 9/9/9 10/10/10
f 8/8/8 7/7/7 3/3/3
f 4/4/4 9/9/9 8/8/8
f 7/7/7 8/8/8 9/9/9
f 17/17/17 22/22/22 14/14/14 13/13/13
f 22/22/22 17/17/17 18/18/18 21/21/21
f 15/15/15 16/16/16 20/20/20 19/19/19
f 19/19/19 20/20/20 21/21/21 18/18/18
f 24/24/24 23/23/23 27/27/27 28/28/28
f 25/25/25 26/26/26 28/28/28 27/27/27
f 33/33/33 38/38/38 30/30/30 29/29/29
f 37/37/37 38/38/38 33/33/33 34/34/34
f 34/34/34 35/35/35 36/36/36 37/37/37
f 31/31/31 32/32/32 36/36/36 35/35/35
f 40/40/40 39/39/39 43/43/43 44/44/44
f 41/41/41 42/42/42 44/44/44 43/43/43
f 56/56/56 49/49/49 45/45/45
f 49/49/49 56/56/56 46/46/46 55/55/55
f 54/54/54 50/50/50 49/49/49 55/55/55
f 50/50/50 54/54/54 53/53/53 51/51/51
f 52/52/52 47/47/47 51/51/51
f 48/48/48 52/52/52 53/53/53
f 51/51/51 53/53/53 52/52/52
usemtl diffuse_0
v 1.3560969829559326 1.2567262649536133 0
v -1.3560969829559326 1.2567262649536133 0
v 1.3560969829559326 1.2567262649536133 -8.898406982421875
v -1.3560969829559326 1.2567262649536133 -8.898406982421875
v 1.3560969829559326 1.2567262649536133 -17.79681396484375
v -1.3560969829559326 1.2567262649536133 -17.79681396484375
v 1.3560969829559326 1.2567262649536133 -4.4492034912109375
v 1.3560969829559326 1.2567262649536133 -13.347610473632813
v 0 1.2567262649536133 -17.79681396484375
v -1.3560969829559326 1.2567262649536133 -13.347610473632813
v -1.3560969829559326 1.2567262649536133 -4.4492034912109375
v 0 1.2567262649536133 0
v 1.3560969829559326 1.2567262649536133 -17.79681396484375
v 1.3560969829559326 0 -17.79681396484375
v 1.3560969829559326 1.2567262649536133 0
v 1.3560969829559326 0 0
v 1.3560969829559326 1.2567262649536133 -13.347610473632813
v 1.3560969829559326 1.2567262649536133 -8.898406982421875
v 1.3560969829559326 1.2567262649536133 -4.4492034912109375
v 1.3560969829559326 0 -4.4492034912109375
v 1.3560969829559326 0 -8.898406982421875
v 1.3560969829559326 0 -13.347610473632813
v -1.3560969829559326 1.2567262649536133 -17.79681396484375
v -1.3560969829559326 0 -17.79681396484375
v 1.3560969829559326 1.2567262649536133 -17.79681396484375
v 1.3560969829559326 0 -17.79681396484375
v 0 1.2567262649536133 -17.79681396484375
v 0 0 -17.79681396484375
v -1.3560969829559326 1.2567262649536133 0
v -1.3560969829559326 0 0
v -1.3560969829559326 1.2567262649536133 -17.79681396484375
v -1.3560969829559326 0 -17.79681396484375
v -1.3560969829559326 1.2567262649536133 -4.4492034912109375
v -1.3560969829559326 1.2567262649536133 -8.898406982421875
v -1.3560969829559326 1.2567262649536133 -13.347610473632813
v -1.3560969829559326 0 -13.347610473632813
v -1.3560969829559326 0 -8.898406982421875
v -1.3560969829559326 0 -4.4492034912109375
v 1.3560969829559326 1.2567262649536133 0
v 1.3560969829559326 0 0
v -1.3560969829559326 1.2567262649536133 0
v -1.3560969829559326 0 0
v 0 1.2567262649536133 0
v 0 0 0
v 1.3560969829559326 0 0
v -1.3560969829559326 0 0
v 1.3560969829559326 0 -8.898406982421875
v -1.3560969829559326 0 -8.898406982421875
v 1.3560969829559326 0 -17.79681396484375
v -1.3560969829559326 0 -17.79681396484375
v 1.3560969829559326 0 -4.4492034912109375
v 1.3560969829559326 0 -13.347610473632813
v 0 0 -17.79681396484375
v -1.3560969829559326 0 -13.347610473632813
v -1.3560969829559326 0 -4.4492034912109375
v 0 0 0
vt 0.12375281006097794 0.57685184478759766
vt 0.12375281006097794 0.71038997173309326
vt 0.56114399433135986 0.57685184478759766
vt 0.56114399433135986 0.71038997173309326
vt 0.99853515625 0.57685184478759766
vt 0.99853515625 0.71038997173309326
vt 0.34244838356971741 0.57685184478759766
vt 0.77983957529067993 0.57685184478759766
vt 0.99853515625 0.64362090826034546
vt 0.77983957529067993 0.71038997173309326
vt 0.34244838356971741 0.71038997173309326
vt 0.12375281006097794 0.64362090826034546
vt 0.12228796631097794 0
vt 0.061876405030488968 0
vt 0.12228796631097794 0.87478232383728027
vt 0.061876405030488968 0.87478232383728027
vt 0.12228796631097794 0.21869558095932007
vt 0.12228796631097794 0.43739116191864014
vt 0.12228796631097794 0.65608674287796021
vt 0.061876405030488968 0.65608674287796021
vt 0.061876405030488968 0.43739116191864014
vt 0.061876405030488968 0.21869558095932007
vt 0.12375281006097794 0.13872826099395752
vt 0.12375281006097794 0.20060466229915619
vt 0.25729089975357056 0.13872826099395752
vt 0.25729089975357056 0.20060466229915619
vt 0.19052185118198395 0.13872826099395752
vt 0.19052185118198395 0.20060466229915619
vt 0.060411561280488968 0
vt 0 0
vt 0.060411561280488968 0.87478232383728027
vt 0 0.87478232383728027
vt 0.060411561280488968 0.21869558095932007
vt 0.060411561280488968 0.43739116191864014
vt 0.060411561280488968 0.65608674287796021
vt 0 0.65608674287796021
vt 0 0.43739116191864014
vt 0 0.21869558095932007
vt 0.12375281006097794 0
vt 0.12375281006097794 0.061876405030488968
vt 0.25729089975357056 0
vt 0.25729089975357056 0.061876405030488968
vt 0.19052185118198395 0
vt 0.19052185118198395 0.061876405030488968
vt 0.12375281006097794 0.27745652198791504
vt 0.12375281006097794 0.41099461913108826
vt 0.56114399433135986 0.27745652198791504
vt 0.56114399433135986 0.41099461913108826
vt 0.99853515625 0.27745652198791504
vt 0.99853515625 0.41099461913108826
vt 0.34244838356971741 0.27745652198791504
vt 0.77983957529067993 0.27745652198791504
vt 0.99853515625 0.34422555565834045
vt 0.77983957529067993 0.41099461913108826
vt 0.34244838356971741 0.41099461913108826
vt 0.12375281006097794 0.34422555565834045
vn 0 1 0
vn 0 1 0
vn 0 1 0
vn 0 1 0
vn 0 1 0
vn 0 1 0
vn 0 1 0
vn 0 1 0
vn 0 1 0
vn 0 1 0
vn 0 1 0
vn 0 1 0
vn 1 0 0
vn 1 0 0
vn 1 0 0
vn 1 0 0
vn 1 0 0
vn 1 0 0
vn 1 0 0
vn 1 0 0
vn 1 0 0
vn 1 0 0
vn 0 0 -1
vn 0 0 -1
vn 0 0 -1
vn 0 0 -1
vn 0 0 -1
vn 0 0 -1
vn -1 0 0
vn -1 0 0
vn -1 0 0
vn -1 0 0
vn -1 0 0
vn -1 0 0
vn -1 0 0
vn -1 0 0
vn -1 0 0
vn -1 0 0
vn 0 0 1
vn 0 0 1
vn 0 0 1
vn 0 0 1
vn 0 0 1
vn 0 0 1
vn 0 -1 0
vn 0 -1 0
vn 0 -1 0
vn 0 -1 0
vn 0 -1 0
vn 0 -1 0
vn 0 -1 0
vn 0 -1 0
vn 0 -1 0
vn 0 -1 0
vn 0 -1 0
vn 0 -1 0
f 68/68/68 57/57/57 63/63/63
f 67/67/67 63/63/63 59/59/59 60/60/60
f 58/58/58 68/68/68 67/67/67
f 63/63/63 67/67/67 68/68/68
f 65/65/65 64/64/64 61/61/61
f 66/66/66 64/64/64 65/65/65
f 66/66/66 60/60/60 59/59/59 64/64/64
f 65/65/65 62/62/62 66/66/66
f 73/73/73 78/78/78 70/70/70 69/69/69
f 78/78/78 73/73/73 74/74/74 77/77/77
f 71/71/71 72/72/72 76/76/76 75/75/75
f 75/75/75 76/76/76 77/77/77 74/74/74
f 80/80/80 79/79/79 83/83/83 84/84/84
f 81/81/81 82/82/82 84/84/84 83/83/83
f 89/89/89 94/94/94 86/86/86 85/85/85
f 94/94/94 89/89/89 90/90/90 93/93/93
f 87/87/87 88/88/88 92/92/92 91/91/91
f 91/91/91 92/92/92 93/93/93 90/90/90
f 96/96/96 95/95/95 99/99/99 100/100/100
f 97/97/97 98/98/98 100/100/100 99/99/99
f 112/112/112 107/107/107 101/101/101
f 111/111/111 104/104/104 103/103/103 107/107/107
f 102/102/102 111/111/111 112/112/112
f 107/107/107 112/112/112 111/111/111
f 109/109/109 105/105/105 108/108/108
f 110/110/110 109/109/109 108/108/108
f 110/110/110 108/108/108 103/103/103 104/104/104
f 109/109/109 110/110/110 106/106/106
usemtl diffuse_0
v 0 0.19358901679515839 0
v 0 0.19358901679515839 -2.7121939659118652
v 8.898406982421875 0.19358901679515839 0
v 8.898406982421875 0.19358901679515839 -2.7121939659118652
v 17.79681396484375 0.19358901679515839 0
v 17.79681396484375 0.19358901679515839 -2.7121939659118652
v 4.4492034912109375 0.19358901679515839 0
v 13.347610473632813 0.19358901679515839 0
v 17.79681396484375 0.19358901679515839 -1.3560969829559326
v 13.347610473632813 0.19358901679515839 -2.7121939659118652
v 4.4492034912109375 0.19358901679515839 -2.7121939659118652
v 0 0.19358901679515839 -1.3560969829559326
v 17.79681396484375 0.19358901679515839 0
v 17.79681396484375 -1.0631371736526489 0
v 0 0.19358901679515839 0
v 0 -1.0631371736526489 0
v 13.347610473632813 0.19358901679515839 0
v 8.898406982421875 0.19358901679515839 0
v 4.4492034912109375 0.19358901679515839 0
v 4.4492034912109375 -1.0631371736526489 0
v 8.898406982421875 -1.0631371736526489 0
v 13.347610473632813 -1.0631371736526489 0
v 17.79681396484375 0.19358901679515839 -2.7121939659118652
v 17.79681396484375 -1.0631371736526489 -2.7121939659118652
v 17.79681396484375 0.19358901679515839 0
v 17.79681396484375 -1.0631371736526489 0
v 17.79681396484375 0.19358901679515839 -1.3560969829559326
v 17.79681396484375 -1.0631371736526489 -1.3560969829559326
v 0 0.19358901679515839 -2.7121939659118652
v 0 -1.0631371736526489 -2.7121939659118652
v 17.79681396484375 0.19358901679515839 -2.7121939659118652
v 17.79681396484375 -1.0631371736526489 -2.7121939659118652
v 4.4492034912109375 0.19358901679515839 -2.7121939659118652
v 8.898406982421875 0.19358901679515839 -2.7121939659118652
v 13.347610473632813 0.19358901679515839 -2.7121939659118652
v 13.347610473632813 -1.0631371736526489 -2.7121939659118652
v 8.898406982421875 -1.0631371736526489 -2.7121939659118652
v 4.4492034912109375 -1.0631371736526489 -2.7121939659118652
v 0 0.19358901679515839 0
v 0 -1.0631371736526489 0
v 0 0.19358901679515839 -2.7121939659118652
v 0 -1.0631371736526489 -2.7121939659118652
v 0 0.19358901679515839 -1.3560969829559326
v 0 -1.0631371736526489 -1.3560969829559326
v 0 -1.0631371736526489 0
v 0 -1.0631371736526489 -2.7121939659118652
v 8.898406982421875 -1.0631371736526489 0
v 8.898406982421875 -1.0631371736526489 -2.7121939659118652
v 17.79681396484375 -1.0631371736526489 0
v 17.79681396484375 -1.0631371736526489 -2.7121939659118652
v 4.4492034912109375 -1.0631371736526489 0
v 13.347610473632813 -1.0631371736526489 0
v 17.79681396484375 -1.0631371736526489 -1.3560969829559326
v 13.347610473632813 -1.0631371736526489 -2.7121939659118652
v 4.4492034912109375 -1.0631371736526489 -2.7121939659118652
v 0 -1.0631371736526489 -1.3560969829559326
vt 0.12375281006097794 0.57685184478759766
vt 0.12375281006097794 0.71038997173309326
vt 0.56114399433135986 0.57685184478759766
vt 0.56114399433135986 0.71038997173309326
vt 0.99853515625 0.57685184478759766
vt 0.99853515625 0.71038997173309326
vt 0.34244838356971741 0.57685184478759766
vt 0.77983957529067993 0.57685184478759766
vt 0.99853515625 0.64362090826034546
vt 0.77983957529067993 0.71038997173309326
vt 0.34244838356971741 0.71038997173309326
vt 0.12375281006097794 0.64362090826034546
vt 0.12228796631097794 0
vt 0.061876405030488968 0
vt 0.12228796631097794 0.87478232383728027
vt 0.061876405030488968 0.87478232383728027
vt 0.12228796631097794 0.21869558095932007
vt 0.12228796631097794 0.43739116191864014
vt 0.12228796631097794 0.65608674287796021
vt 0.061876405030488968 0.65608674287796021
vt 0.061876405030488968 0.43739116191864014
vt 0.061876405030488968 0.21869558095932007
vt 0.12375281006097794 0.13872826099395752
vt 0.12375281006097794 0.20060466229915619
vt 0.25729089975357056 0.13872826099395752
vt 0.25729089975357056 0.20060466229915619
vt 0.19052185118198395 0.13872826099395752
vt 0.19052185118198395 0.20060466229915619
vt 0.060411561280488968 0
vt 0 0
vt 0.060411561280488968 0.87478232383728027
vt 0 0.87478232383728027
vt 0.060411561280488968 0.21869558095932007
vt 0.060411561280488968 0.43739116191864014
vt 0.060411561280488968 0.65608674287796021
vt 0 0.65608674287796021
vt 0 0.43739116191864014
vt 0 0.21869558095932007
vt 0.12375281006097794 0
vt 0.12375281006097794 0.061876405030488968
vt 0.25729089975357056 0
vt 0.25729089975357056 0.061876405030488968
vt 0.19052185118198395 0
vt 0.19052185118198395 0.061876405030488968
vt 0.12375281006097794 0.27745652198791504
vt 0.12375281006097794 0.41099461913108826
vt 0.56114399433135986 0.27745652198791504
vt 0.56114399433135986 0.41099461913108826
vt 0.99853515625 0.27745652198791504
vt 0.99853515625 0.41099461913108826
vt 0.34244838356971741 0.27745652198791504
vt 0.77983957529067993 0.27745652198791504
vt 0.99853515625 0.34422555565834045
vt 0.77983957529067993 0.41099461913108826
vt 0.34244838356971741 0.41099461913108826
vt 0.12375281006097794 0.34422555565834045
vn 0 1 0
vn 0 1 0
vn 0 1 0
vn 0 1 0
vn 0 1 0
vn 0 1 0
vn 0 1 0
vn 0 1 0
vn 0 1 0
vn 0 1 0
vn 0 1 0
vn 0 1 0
vn 0 0 1
vn 0 0 1
vn 0 0 1
vn 0 0 1
vn 0 0 1
vn 0 0 1
vn 0 0 1
vn 0 0 1
vn 0 0 1
vn 0 0 1
vn 1 0 0
vn 1 0 0
vn 1 0 0
vn 1 0 0
vn 1 0 0
vn 1 0 0
vn 0 0 -1
vn 0 0 -1
vn 0 0 -1
vn 0 0 -1
vn 0 0 -1
vn 0 0 -1
vn 0 0 -1
vn 0 0 -1
vn 0 0 -1
vn 0 0 -1
vn -1 0 0
vn -1 0 0
vn -1 0 0
vn -1 0 0
vn -1 0 0
vn -1 0 0
vn 0 -1 0
vn 0 -1 0
vn 0 -1 0
vn 0 -1 0
vn 0 -1 0
vn 0 -1 0
vn 0 -1 0
vn 0 -1 0
vn 0 -1 0
vn 0 -1 0
vn 0 -1 0
vn 0 -1 0
f 124/124/124 113/113/113 119/119/119
f 123/123/123 119/119/119 115/115/115 116/116/116
f 114/114/114 124/124/124 123/123/123
f 119/119/119 123/123/123 124/124/124
f 121/121/121 120/120/120 117/117/117
f 122/122/122 120/120/120 121/121/121
f 120/120/120 122/122/122 116/116/116 115/115/115
f 121/121/121 118/118/118 122/122/122
f 129/129/129 134/134/134 126/126/126 125/125/125
f 134/134/134 129/129/129 130/130/130 133/133/133
f 127/127/127 128/128/128 132/132/132 131/131/131
f 131/131/131 132/132/132 133/133/133 130/130/130
f 136/136/136 135/135/135 139/139/139 140/140/140
f 137/137/137 138/138/138 140/140/140 139/139/139
f 145/145/145 150/150/150 142/142/142 141/141/141
f 150/150/150 145/145/145 146/146/146 149/149/149
f 143/143/143 144/144/144 148/148/148 147/147/147
f 147/147/147 148/148/148 149/149/149 146/146/146
f 152/152/152 151/151/151 155/155/155 156/156/156
f 153/153/153 154/154/154 156/156/156 155/155/155
f 168/168/168 163/163/163 157/157/157
f 167/167/167 160/160/160 159/159/159 163/163/163
f 158/158/158 167/167/167 168/168/168
f 163/163/163 168/168/168 167/167/167
f 165/165/165 161/161/161 164/164/164
f 166/166/166 165/165/165 164/164/164
f 164/164/164 159/159/159 160/160/160 166/166/166
f 165/165/165 166/166/166 162/162/162
usemtl diffuse_0
v 0 0 -22.596080780029297
v 0 0 0
v 22.596080780029297 0 -22.596080780029297
v 22.596080780029297 0 0
vt 0 0
vt 0 1
vt 1 0
vt 1 1
vn 0 -1 0
vn 0 -1 0
vn 0 -1 0
vn 0 -1 0
f 172/172/172 170/170/170 169/169/169 171/171/171
